<svg width="27" height="27" viewBox="0 0 27 27" fill="none" xmlns="http://www.w3.org/2000/svg">
<path d="M20.6879 0H5.54449C2.48303 0 0.0012207 2.48178 0.0012207 5.54324V20.6867C0.0012207 23.7482 2.48303 26.23 5.54449 26.23H20.6879C23.7494 26.23 26.2312 23.7482 26.2312 20.6867V5.54324C26.2312 2.48178 23.7494 0 20.6879 0Z" fill="#134563"/>
<path d="M19.9169 10H17.4861C17.5465 9.72624 17.5798 9.44708 17.5853 9.16667C17.5853 8.0616 17.1497 7.00179 16.3744 6.22039C15.5992 5.43899 14.5476 5 13.4512 5C12.3548 5 11.3033 5.43899 10.528 6.22039C9.75272 7.00179 9.31717 8.0616 9.31717 9.16667C9.32266 9.44708 9.3559 9.72624 9.41639 10H6.98557L5.00122 20H21.9012L19.9169 10ZM13.4512 6.66667C14.1091 6.66667 14.74 6.93006 15.2052 7.3989C15.6703 7.86774 15.9317 8.50363 15.9317 9.16667C15.9317 10.6083 14.4599 12.6167 13.4512 13.775C12.4425 12.6167 10.9708 10.6083 10.9708 9.16667C10.9708 8.50363 11.2321 7.86774 11.6973 7.3989C12.1625 6.93006 12.7934 6.66667 13.4512 6.66667ZM7.01864 18.3333L8.34153 11.6667H9.99515C10.7575 13.1084 11.7239 14.4306 12.8642 15.5917L13.4512 16.1833L14.0383 15.5917C15.1756 14.43 16.1392 13.1079 16.899 11.6667H18.5526L19.8755 18.3333H7.01864Z" fill="white"/>
<path d="M14.2779 8.33301H12.6243V9.99967H14.2779V8.33301Z" fill="white"/>
</svg>
