<svg width="11" height="20" viewBox="0 0 11 20" fill="none" xmlns="http://www.w3.org/2000/svg">
<path fill-rule="evenodd" clip-rule="evenodd" d="M0.36652 19.7075C0.77152 20.0975 1.42652 20.0975 1.83052 19.7075L10.3935 11.4435C10.5852 11.2614 10.7378 11.0421 10.8421 10.7991C10.9464 10.5561 11.0002 10.2945 11.0002 10.03C11.0002 9.7656 10.9464 9.50393 10.8421 9.26094C10.7378 9.01794 10.5852 8.7987 10.3935 8.61653L1.76852 0.291532C1.57277 0.10548 1.31355 0.000905921 1.0435 -0.000951394C0.773443 -0.00280871 0.512807 0.0981897 0.31452 0.281532C0.216291 0.372073 0.137696 0.481814 0.0836001 0.603961C0.0295044 0.726109 0.00106027 0.858061 2.90802e-05 0.991647C-0.00100211 1.12523 0.0254016 1.25761 0.0776052 1.38058C0.129809 1.50354 0.206701 1.61449 0.30352 1.70653L8.19752 9.32353C8.29344 9.41462 8.36982 9.52427 8.42201 9.64582C8.47421 9.76736 8.50112 9.89826 8.50112 10.0305C8.50112 10.1628 8.47421 10.2937 8.42201 10.4152C8.36982 10.5368 8.29344 10.6464 8.19752 10.7375L0.36652 18.2945C0.27063 18.3855 0.194268 18.4951 0.142085 18.6166C0.089903 18.738 0.0629923 18.8688 0.0629923 19.001C0.0629923 19.1332 0.089903 19.264 0.142085 19.3855C0.194268 19.507 0.27063 19.6165 0.36652 19.7075Z" fill="white"/>
</svg>
