<svg xmlns="http://www.w3.org/2000/svg" xmlns:xlink="http://www.w3.org/1999/xlink" width="500" zoomAndPan="magnify" viewBox="0 0 375 374.999991" height="500" preserveAspectRatio="xMidYMid meet" version="1.0"><defs><clipPath id="10e1def8c7"><path d="M 9.566406 9.566406 L 365.433594 9.566406 L 365.433594 365.433594 L 9.566406 365.433594 Z M 9.566406 9.566406 " clip-rule="nonzero"/></clipPath><clipPath id="9b76e9333c"><path d="M 187.5 9.566406 C 89.230469 9.566406 9.566406 89.230469 9.566406 187.5 C 9.566406 285.769531 89.230469 365.433594 187.5 365.433594 C 285.769531 365.433594 365.433594 285.769531 365.433594 187.5 C 365.433594 89.230469 285.769531 9.566406 187.5 9.566406 Z M 187.5 9.566406 " clip-rule="nonzero"/></clipPath><clipPath id="d7ba035847"><path d="M 91 114.679688 L 284 114.679688 L 284 246 L 91 246 Z M 91 114.679688 " clip-rule="nonzero"/></clipPath></defs><g clip-path="url(#10e1def8c7)"><g clip-path="url(#9b76e9333c)"><path fill="#0d3644" d="M 9.566406 9.566406 L 365.433594 9.566406 L 365.433594 365.433594 L 9.566406 365.433594 Z M 9.566406 9.566406 " fill-opacity="1" fill-rule="nonzero"/></g></g><g clip-path="url(#d7ba035847)"><path fill="#ccebf5" d="M 189.050781 114.8125 L 96.683594 206.246094 C 78.84375 223.910156 111.84375 260.179688 132.605469 238.902344 L 189.050781 181.058594 L 244.566406 240.769531 C 261.472656 258.953125 296.164062 225.269531 278.621094 207.179688 Z M 189.050781 114.8125 " fill-opacity="1" fill-rule="nonzero"/></g></svg>