<svg width="48" height="48" viewBox="0 0 48 48" fill="none" xmlns="http://www.w3.org/2000/svg">
<path d="M23.9 47.8C10.7 47.8 0 37.1 0 23.9C0 10.7 10.7 0 23.9 0C37.1 0 47.8 10.7 47.8 23.9C47.8 37.1 37.1 47.8 23.9 47.8ZM23.9 2.60001C12.2 2.60001 2.6 12.2 2.6 23.9C2.6 35.6 12.2 45.2 23.9 45.2C35.6 45.2 45.2 35.6 45.2 23.9C45.2 12.2 35.6 2.60001 23.9 2.60001Z" fill="#134563"/>
<path d="M23.3996 37.6002L21.5996 35.7002L33.2996 23.9002L21.5996 12.1002L23.3996 10.2002L37.0996 23.9002L23.3996 37.6002Z" fill="#134563"/>
<path d="M35.2002 25.3H11.2002V22.5H35.2002V25.3Z" fill="#134563"/>
</svg>
