<svg width="26" height="26" viewBox="0 0 26 26" fill="none" xmlns="http://www.w3.org/2000/svg">
<path d="M23.7429 0H1.39664C0.625298 0 0 0.625298 0 1.39664V23.7429C0 24.5143 0.625298 25.1396 1.39664 25.1396H23.7429C24.5143 25.1396 25.1396 24.5143 25.1396 23.7429V1.39664C25.1396 0.625298 24.5143 0 23.7429 0Z" fill="#134563"/>
<path fill-rule="evenodd" clip-rule="evenodd" d="M4.58741 9.72292H7.94738V20.5336H4.58741V9.72292ZM6.26792 4.34898C7.34228 4.34898 8.21518 5.22188 8.21518 6.29625C8.21518 7.37167 7.34228 8.24492 6.26792 8.24492C6.009 8.24982 5.75171 8.20306 5.51108 8.10737C5.27044 8.01167 5.0513 7.86897 4.86647 7.6876C4.68163 7.50623 4.5348 7.28983 4.43457 7.05105C4.33434 6.81227 4.28271 6.55591 4.28271 6.29695C4.28271 6.03799 4.33434 5.78163 4.43457 5.54285C4.5348 5.30407 4.68163 5.08767 4.86647 4.9063C5.0513 4.72493 5.27044 4.58223 5.51108 4.48653C5.75171 4.39084 6.009 4.34408 6.26792 4.34898ZM10.0549 9.72257H13.2777V11.1999H13.3224C13.771 10.35 14.867 9.45406 16.5015 9.45406C19.9037 9.45406 20.5322 11.6932 20.5322 14.6042V20.5336H17.1743V15.2763C17.1743 14.0228 17.1513 12.4101 15.4285 12.4101C13.6802 12.4101 13.4117 13.7756 13.4117 15.1859V20.5336H10.0546V9.72292L10.0549 9.72257Z" fill="white"/>
</svg>
