<svg width="22" height="20" viewBox="0 0 22 20" fill="none" xmlns="http://www.w3.org/2000/svg">
<path fill-rule="evenodd" clip-rule="evenodd" d="M22 20H17.1375V12.969C17.1375 11.129 16.3775 9.8725 14.7045 9.8725C13.4255 9.8725 12.714 10.7205 12.383 11.5375C12.2585 11.8305 12.278 12.239 12.278 12.6475V20H7.461C7.461 20 7.523 7.5455 7.461 6.4135H12.278V8.546C12.563 7.6135 14.102 6.283 16.558 6.283C19.6055 6.283 22 8.237 22 12.4455V20ZM2.59 4.714H2.5585C1.0065 4.714 0 3.6755 0 2.359C0 1.017 1.036 0 2.6195 0C4.2015 0 5.1745 1.0145 5.205 2.355C5.205 3.6715 4.2015 4.714 2.59 4.714ZM0.555 6.4135H4.843V20H0.555V6.4135Z" fill="#306B8D"/>
</svg>
