<svg width="14" height="8" viewBox="0 0 14 8" fill="none" xmlns="http://www.w3.org/2000/svg">
<path d="M9.89741 0.0958257C9.76178 0.224983 9.76616 0.429136 9.89741 0.566626L12.8024 3.6664L0.35116 3.6664C0.15866 3.6664 0.00115967 3.81639 0.00115967 3.99971C0.00115967 4.18303 0.15866 4.33302 0.35116 4.33302L12.8024 4.33302L9.90178 7.4328C9.77491 7.57445 9.76178 7.77027 9.89741 7.89943C10.033 8.02859 10.2693 8.03692 10.3962 7.9036C10.3962 7.9036 13.8612 4.27886 13.8962 4.23719C13.9312 4.19553 14.0012 4.12054 14.0012 3.99971C14.0012 3.87889 13.9312 3.79556 13.8962 3.76223C13.8612 3.7289 10.3962 0.0958257 10.3962 0.0958257C10.3305 0.03333 10.2387 0 10.1468 0C10.0549 0 9.96741 0.03333 9.89741 0.0958257Z" fill="#004168"/>
</svg>
