<svg width="28" height="20" viewBox="0 0 28 20" fill="none" xmlns="http://www.w3.org/2000/svg">
<path d="M13.9987 8.81L26.7788 0.6C26.2649 0.214614 25.641 0.00430105 24.9988 0H2.99875C2.35649 0.00430105 1.73256 0.214614 1.21875 0.6L13.9987 8.81Z" fill="#306B8D"/>
<path d="M14.54 10.58L14.37 10.66H14.29C14.1979 10.7011 14.1001 10.7281 14 10.74C13.917 10.7505 13.833 10.7505 13.75 10.74H13.67L13.5 10.66L0.0999999 2C0.0359781 2.24154 0.0023847 2.49013 0 2.74V16.74C0 17.5356 0.316071 18.2987 0.87868 18.8613C1.44129 19.4239 2.20435 19.74 3 19.74H25C25.7956 19.74 26.5587 19.4239 27.1213 18.8613C27.6839 18.2987 28 17.5356 28 16.74V2.74C27.9976 2.49013 27.964 2.24154 27.9 2L14.54 10.58Z" fill="#306B8D"/>
</svg>
