<svg width="27" height="27" viewBox="0 0 27 27" fill="none" xmlns="http://www.w3.org/2000/svg">
<path d="M20.6879 0H5.54449C2.48303 0 0.0012207 2.48178 0.0012207 5.54324V20.6867C0.0012207 23.7482 2.48303 26.23 5.54449 26.23H20.6879C23.7494 26.23 26.2312 23.7482 26.2312 20.6867V5.54324C26.2312 2.48178 23.7494 0 20.6879 0Z" fill="#134563"/>
<path d="M6.44513 9.17648C6.35251 9.18783 6.26777 9.23428 6.20839 9.30627C6.14901 9.37826 6.11952 9.47028 6.126 9.56337V17.8513C6.126 17.9479 6.16438 18.0406 6.2327 18.1089C6.30102 18.1772 6.39369 18.2156 6.49031 18.2156H19.7423C19.8389 18.2156 19.9316 18.1772 19.9999 18.1089C20.0682 18.0406 20.1066 17.9479 20.1066 17.8513V9.60855C20.1167 9.55537 20.1148 9.50061 20.101 9.44826C20.0873 9.39591 20.0621 9.34728 20.0272 9.3059C19.9923 9.26452 19.9486 9.23143 19.8993 9.20905C19.8501 9.18666 19.7964 9.17554 19.7423 9.17648H13.1163L6.5588 9.19907C6.53677 9.18929 6.51383 9.18173 6.49031 9.17648C6.47526 9.17555 6.46018 9.17555 6.44513 9.17648ZM13.1163 9.90509H18.4898L13.1163 13.2749L7.76538 9.92768L13.1163 9.90509ZM6.85461 10.2009L12.9341 14.0035C12.9921 14.0399 13.0592 14.0591 13.1276 14.0591C13.196 14.0591 13.2631 14.0399 13.321 14.0035L19.378 10.2009V17.487H6.85461V10.2009Z" fill="white"/>
</svg>
