<svg xmlns="http://www.w3.org/2000/svg" xmlns:xlink="http://www.w3.org/1999/xlink" width="500" zoomAndPan="magnify" viewBox="0 0 375 374.999991" height="500" preserveAspectRatio="xMidYMid meet" version="1.0"><defs><clipPath id="1c21a3a8e0"><path d="M 51.578125 45.335938 L 323.421875 45.335938 L 323.421875 317.183594 L 51.578125 317.183594 Z M 51.578125 45.335938 " clip-rule="nonzero"/></clipPath><clipPath id="0719a516bc"><path d="M 187.5 45.335938 C 112.433594 45.335938 51.578125 106.191406 51.578125 181.257812 C 51.578125 256.328125 112.433594 317.183594 187.5 317.183594 C 262.566406 317.183594 323.421875 256.328125 323.421875 181.257812 C 323.421875 106.191406 262.566406 45.335938 187.5 45.335938 Z M 187.5 45.335938 " clip-rule="nonzero"/></clipPath><clipPath id="2c958b0522"><path d="M 152 109.398438 L 223 109.398438 L 223 184 L 152 184 Z M 152 109.398438 " clip-rule="nonzero"/></clipPath><clipPath id="c1525e1324"><path d="M 122.015625 184 L 253 184 L 253 253.398438 L 122.015625 253.398438 Z M 122.015625 184 " clip-rule="nonzero"/></clipPath></defs><g clip-path="url(#1c21a3a8e0)"><g clip-path="url(#0719a516bc)"><path fill="#306b8d" d="M 51.578125 45.335938 L 323.421875 45.335938 L 323.421875 317.183594 L 51.578125 317.183594 Z M 51.578125 45.335938 " fill-opacity="1" fill-rule="nonzero"/></g></g><g clip-path="url(#2c958b0522)"><path fill="#ccebf5" d="M 187.496094 183.949219 C 206.734375 183.949219 222.382812 163.527344 222.382812 144.289062 C 222.382812 125.054688 206.734375 109.398438 187.496094 109.398438 C 168.257812 109.398438 152.605469 125.054688 152.605469 144.289062 C 152.609375 163.527344 168.257812 183.949219 187.496094 183.949219 Z M 187.496094 183.949219 " fill-opacity="1" fill-rule="nonzero"/></g><g clip-path="url(#c1525e1324)"><path fill="#ccebf5" d="M 213.6875 184.304688 C 206.921875 189.460938 198.476562 192.53125 189.332031 192.53125 L 185.660156 192.53125 C 176.511719 192.53125 168.066406 189.460938 161.300781 184.304688 C 139.203125 187.878906 122.332031 207.03125 122.332031 230.132812 C 122.332031 242.824219 151.503906 253.117188 187.496094 253.117188 C 223.484375 253.117188 252.660156 242.824219 252.660156 230.132812 C 252.660156 207.03125 235.785156 187.878906 213.6875 184.304688 Z M 213.6875 184.304688 " fill-opacity="1" fill-rule="nonzero"/></g></svg>