<svg width="27" height="27" viewBox="0 0 27 27" fill="none" xmlns="http://www.w3.org/2000/svg">
<path d="M20.1109 0H6.12155C2.74139 0 0.0012207 2.74017 0.0012207 6.12033V20.1097C0.0012207 23.4898 2.74139 26.23 6.12155 26.23H20.1109C23.4911 26.23 26.2312 23.4898 26.2312 20.1097V6.12033C26.2312 2.74017 23.4911 0 20.1109 0Z" fill="#134563"/>
<mask id="mask0_741_89" style="mask-type:luminance" maskUnits="userSpaceOnUse" x="0" y="0" width="27" height="27">
<path d="M20.1109 0H6.12155C2.74139 0 0.0012207 2.74017 0.0012207 6.12033V20.1097C0.0012207 23.4898 2.74139 26.23 6.12155 26.23H20.1109C23.4911 26.23 26.2312 23.4898 26.2312 20.1097V6.12033C26.2312 2.74017 23.4911 0 20.1109 0Z" fill="white"/>
</mask>
<g mask="url(#mask0_741_89)">
<path fill-rule="evenodd" clip-rule="evenodd" d="M9.79808 16.2834L11.8074 14.2741L13.353 15.8197C14.2943 16.761 15.0532 17.0562 16.4442 15.9743C16.7534 15.6652 17.2943 15.2788 17.9126 15.5879L20.8492 17.5972C21.6993 18.2927 21.7687 18.6725 21.5448 19.2201C20.1546 22.618 15.7487 22.0795 9.79808 16.2834ZM9.79808 16.2834C4.00201 10.3328 3.46352 5.92687 6.8614 4.53674C7.40902 4.31278 7.78878 4.38218 8.4843 5.23227L10.4936 8.16894C10.8027 8.78718 10.4163 9.32815 10.1072 9.63727C9.02527 11.0283 9.32048 11.7872 10.2618 12.7285L11.8074 14.2741L9.79808 16.2834Z" fill="white"/>
</g>
</svg>
