<svg width="27" height="26" viewBox="0 0 27 26" fill="none" xmlns="http://www.w3.org/2000/svg">
<path d="M25.7847 25.2847C25.558 25.5114 25.2889 25.6913 24.9927 25.8141C24.6965 25.9368 24.379 26 24.0584 26C23.7377 26 23.4203 25.9368 23.1241 25.8141C22.8279 25.6913 22.5587 25.5114 22.3321 25.2847L18.0233 20.9759C16.2506 22.1104 14.1556 22.7892 11.8946 22.7892C5.60153 22.7892 0.5 17.6877 0.5 11.3946C0.5 5.10153 5.60153 0 11.8946 0C18.1877 0 23.2892 5.10153 23.2892 11.3946C23.2892 13.6556 22.6104 15.7506 21.4759 17.5233L25.7847 21.8321C26.0114 22.0587 26.1913 22.3279 26.3141 22.6241C26.4368 22.9203 26.5 23.2377 26.5 23.5584C26.5 23.879 26.4368 24.1965 26.3141 24.4927C26.1913 24.7889 26.0114 25.058 25.7847 25.2847ZM11.8946 3.2556C7.40025 3.2556 3.7556 6.89863 3.7556 11.3946C3.7556 15.8906 7.40025 19.5336 11.8946 19.5336C16.3906 19.5336 20.0336 15.8906 20.0336 11.3946C20.0336 6.89863 16.3906 3.2556 11.8946 3.2556Z" fill="black"/>
</svg>
