<svg width="14" height="16" viewBox="0 0 14 16" fill="none" xmlns="http://www.w3.org/2000/svg">
<path d="M14 8C14 8.3466 13.8827 8.63864 13.6481 8.87612L7.45652 15.1438C7.20924 15.3813 6.92074 15.5 6.59103 15.5C6.26766 15.5 5.98234 15.3813 5.73505 15.1438L5.02174 14.4217C4.7808 14.1778 4.66033 13.8858 4.66033 13.5456C4.66033 13.2054 4.7808 12.9134 5.02174 12.6694L7.80842 9.84852L1.11277 9.84852C0.783062 9.84852 0.515172 9.72818 0.309103 9.48748C0.103034 9.24679 0 8.95635 0 8.61617L0 7.38383C0 7.04365 0.103034 6.75321 0.309103 6.51252C0.515172 6.27182 0.783062 6.15148 1.11277 6.15148L7.80842 6.15148L5.02174 3.32092C4.7808 3.08986 4.66033 2.80103 4.66033 2.45443C4.66033 2.10783 4.7808 1.819 5.02174 1.58793L5.73505 0.865854C5.976 0.621951 6.26132 0.5 6.59103 0.5C6.92708 0.5 7.21558 0.621951 7.45652 0.865854L13.6481 7.1335C13.8827 7.35815 14 7.64698 14 8Z" fill="white"/>
</svg>
