<svg xmlns="http://www.w3.org/2000/svg" xmlns:xlink="http://www.w3.org/1999/xlink" width="500" zoomAndPan="magnify" viewBox="0 0 375 374.999991" height="500" preserveAspectRatio="xMidYMid meet" version="1.0"><defs><clipPath id="c5108b27fa"><path d="M 10.285156 10.285156 L 364.714844 10.285156 L 364.714844 364.714844 L 10.285156 364.714844 Z M 10.285156 10.285156 " clip-rule="nonzero"/></clipPath><clipPath id="468dd23dde"><path d="M 187.5 10.285156 C 89.628906 10.285156 10.285156 89.628906 10.285156 187.5 C 10.285156 285.371094 89.628906 364.714844 187.5 364.714844 C 285.371094 364.714844 364.714844 285.371094 364.714844 187.5 C 364.714844 89.628906 285.371094 10.285156 187.5 10.285156 Z M 187.5 10.285156 " clip-rule="nonzero"/></clipPath><clipPath id="b95418aaa2"><path d="M 10.285156 10.285156 L 365 10.285156 L 365 365 L 10.285156 365 Z M 10.285156 10.285156 " clip-rule="nonzero"/></clipPath><clipPath id="bb8e7ff655"><path d="M 187.496094 10.285156 C 89.625 10.285156 10.285156 89.625 10.285156 187.496094 C 10.285156 285.367188 89.625 364.707031 187.496094 364.707031 C 285.367188 364.707031 364.707031 285.367188 364.707031 187.496094 C 364.707031 89.625 285.367188 10.285156 187.496094 10.285156 Z M 187.496094 10.285156 " clip-rule="nonzero"/></clipPath></defs><g clip-path="url(#c5108b27fa)"><g clip-path="url(#468dd23dde)"><path fill="#ffffff" d="M 10.285156 10.285156 L 364.714844 10.285156 L 364.714844 364.714844 L 10.285156 364.714844 Z M 10.285156 10.285156 " fill-opacity="1" fill-rule="nonzero"/></g></g><g clip-path="url(#b95418aaa2)"><g clip-path="url(#bb8e7ff655)"><path stroke-linecap="butt" transform="matrix(0.75, 0, 0, 0.75, 10.286053, 10.286044)" fill="none" stroke-linejoin="miter" d="M 236.280069 -0.00118415 C 105.785269 -0.00118415 -0.00119623 105.785281 -0.00119623 236.280081 C -0.00119623 366.774882 105.785269 472.561347 236.280069 472.561347 C 366.77487 472.561347 472.561335 366.774882 472.561335 236.280081 C 472.561335 105.785281 366.77487 -0.00118415 236.280069 -0.00118415 Z M 236.280069 -0.00118415 " stroke="#306b8d" stroke-width="20" stroke-opacity="1" stroke-miterlimit="4"/></g></g></svg>