<svg xmlns="http://www.w3.org/2000/svg" xmlns:xlink="http://www.w3.org/1999/xlink" width="500" zoomAndPan="magnify" viewBox="0 0 375 374.999991" height="500" preserveAspectRatio="xMidYMid meet" version="1.0"><defs><g/><clipPath id="bd4f45fe67"><path d="M 10.285156 10.285156 L 364.714844 10.285156 L 364.714844 364.714844 L 10.285156 364.714844 Z M 10.285156 10.285156 " clip-rule="nonzero"/></clipPath><clipPath id="9cd0bd8a89"><path d="M 187.5 10.285156 C 89.628906 10.285156 10.285156 89.628906 10.285156 187.5 C 10.285156 285.371094 89.628906 364.714844 187.5 364.714844 C 285.371094 364.714844 364.714844 285.371094 364.714844 187.5 C 364.714844 89.628906 285.371094 10.285156 187.5 10.285156 Z M 187.5 10.285156 " clip-rule="nonzero"/></clipPath></defs><g clip-path="url(#bd4f45fe67)"><g clip-path="url(#9cd0bd8a89)"><path fill="#306b8d" d="M 10.285156 10.285156 L 364.714844 10.285156 L 364.714844 364.714844 L 10.285156 364.714844 Z M 10.285156 10.285156 " fill-opacity="1" fill-rule="nonzero"/></g></g><g fill="#ffffff" fill-opacity="1"><g transform="translate(124.450108, 206.786002)"><g><path d="M 1.925781 0 L 1.925781 -9.890625 L 16.792969 -19.886719 C 17.597656 -20.417969 18.320312 -20.984375 18.96875 -21.585938 C 19.617188 -22.183594 20.171875 -22.824219 20.640625 -23.507812 C 21.105469 -24.1875 21.472656 -24.886719 21.734375 -25.609375 C 21.996094 -26.332031 22.128906 -27.097656 22.128906 -27.902344 C 22.128906 -28.847656 21.90625 -29.660156 21.464844 -30.347656 C 21.019531 -31.035156 20.398438 -31.5625 19.605469 -31.925781 C 18.808594 -32.289062 17.855469 -32.472656 16.746094 -32.472656 C 15.441406 -32.472656 14.378906 -32.234375 13.550781 -31.761719 C 12.722656 -31.289062 12.09375 -30.664062 11.667969 -29.882812 C 11.238281 -29.105469 10.96875 -28.253906 10.859375 -27.335938 C 10.746094 -26.417969 10.734375 -25.5 10.824219 -24.582031 L 1.671875 -25.6875 C 1.371094 -28.78125 1.796875 -31.433594 2.949219 -33.636719 C 4.097656 -35.84375 5.875 -37.535156 8.28125 -38.710938 C 10.683594 -39.886719 13.597656 -40.476562 17.023438 -40.476562 C 20.078125 -40.476562 22.710938 -40.007812 24.914062 -39.070312 C 27.117188 -38.132812 28.808594 -36.765625 29.996094 -34.960938 C 31.183594 -33.15625 31.777344 -30.976562 31.777344 -28.417969 C 31.777344 -26.546875 31.492188 -24.859375 30.925781 -23.351562 C 30.359375 -21.84375 29.578125 -20.488281 28.578125 -19.28125 C 27.578125 -18.070312 26.429688 -16.957031 25.128906 -15.9375 C 23.828125 -14.914062 22.449219 -13.953125 20.992188 -13.046875 L 13.132812 -8.175781 L 13.132812 -7.875 L 32.257812 -8.042969 L 32.257812 0 Z M 1.925781 0 "/></g></g></g><g fill="#ffffff" fill-opacity="1"><g transform="translate(158.230078, 206.786002)"><g><path d="M 18.097656 0.839844 C 15.496094 0.839844 13.183594 0.375 11.15625 -0.558594 C 9.128906 -1.492188 7.421875 -2.832031 6.03125 -4.585938 C 4.640625 -6.335938 3.59375 -8.46875 2.886719 -10.980469 C 2.179688 -13.492188 1.824219 -16.324219 1.824219 -19.476562 C 1.824219 -23.984375 2.480469 -27.792969 3.796875 -30.902344 C 5.109375 -34.011719 7.007812 -36.375 9.488281 -37.996094 C 11.96875 -39.617188 14.957031 -40.429688 18.445312 -40.429688 C 21.917969 -40.429688 24.863281 -39.625 27.285156 -38.015625 C 29.707031 -36.40625 31.550781 -34.058594 32.8125 -30.96875 C 34.074219 -27.882812 34.707031 -24.128906 34.707031 -19.714844 C 34.707031 -16.507812 34.339844 -13.636719 33.609375 -11.101562 C 32.878906 -8.566406 31.804688 -6.414062 30.386719 -4.648438 C 28.96875 -2.878906 27.230469 -1.523438 25.171875 -0.578125 C 23.113281 0.367188 20.753906 0.839844 18.097656 0.839844 Z M 18.386719 -6.867188 C 19.425781 -6.867188 20.339844 -7.109375 21.128906 -7.59375 C 21.914062 -8.078125 22.574219 -8.824219 23.109375 -9.832031 C 23.640625 -10.839844 24.039062 -12.132812 24.304688 -13.703125 C 24.574219 -15.273438 24.707031 -17.132812 24.707031 -19.28125 C 24.707031 -22.234375 24.472656 -24.703125 24.007812 -26.6875 C 23.539062 -28.671875 22.832031 -30.167969 21.882812 -31.171875 C 20.933594 -32.183594 19.710938 -32.6875 18.21875 -32.6875 C 16.871094 -32.6875 15.71875 -32.226562 14.761719 -31.304688 C 13.804688 -30.382812 13.078125 -28.964844 12.582031 -27.050781 C 12.085938 -25.140625 11.835938 -22.671875 11.835938 -19.65625 C 11.835938 -17.480469 11.976562 -15.597656 12.253906 -14 C 12.53125 -12.40625 12.953125 -11.082031 13.515625 -10.03125 C 14.074219 -8.976562 14.761719 -8.1875 15.574219 -7.660156 C 16.382812 -7.128906 17.320312 -6.867188 18.386719 -6.867188 Z M 18.386719 -6.867188 "/></g></g></g><g fill="#ffffff" fill-opacity="1"><g transform="translate(194.770042, 206.786002)"><g><path d="M 6.707031 0 L 6.707031 -26.234375 L 1.3125 -26.234375 L 1.3125 -34.597656 C 3.015625 -34.597656 4.441406 -34.898438 5.59375 -35.5 C 6.742188 -36.105469 7.515625 -37.46875 7.910156 -39.601562 L 16.441406 -39.601562 L 16.441406 0 Z M 6.707031 0 "/></g></g></g><g fill="#ffffff" fill-opacity="1"><g transform="translate(213.970023, 206.786002)"><g><path d="M 18.097656 0.839844 C 15.496094 0.839844 13.183594 0.375 11.15625 -0.558594 C 9.128906 -1.492188 7.421875 -2.832031 6.03125 -4.585938 C 4.640625 -6.335938 3.59375 -8.46875 2.886719 -10.980469 C 2.179688 -13.492188 1.824219 -16.324219 1.824219 -19.476562 C 1.824219 -23.984375 2.480469 -27.792969 3.796875 -30.902344 C 5.109375 -34.011719 7.007812 -36.375 9.488281 -37.996094 C 11.96875 -39.617188 14.957031 -40.429688 18.445312 -40.429688 C 21.917969 -40.429688 24.863281 -39.625 27.285156 -38.015625 C 29.707031 -36.40625 31.550781 -34.058594 32.8125 -30.96875 C 34.074219 -27.882812 34.707031 -24.128906 34.707031 -19.714844 C 34.707031 -16.507812 34.339844 -13.636719 33.609375 -11.101562 C 32.878906 -8.566406 31.804688 -6.414062 30.386719 -4.648438 C 28.96875 -2.878906 27.230469 -1.523438 25.171875 -0.578125 C 23.113281 0.367188 20.753906 0.839844 18.097656 0.839844 Z M 18.386719 -6.867188 C 19.425781 -6.867188 20.339844 -7.109375 21.128906 -7.59375 C 21.914062 -8.078125 22.574219 -8.824219 23.109375 -9.832031 C 23.640625 -10.839844 24.039062 -12.132812 24.304688 -13.703125 C 24.574219 -15.273438 24.707031 -17.132812 24.707031 -19.28125 C 24.707031 -22.234375 24.472656 -24.703125 24.007812 -26.6875 C 23.539062 -28.671875 22.832031 -30.167969 21.882812 -31.171875 C 20.933594 -32.183594 19.710938 -32.6875 18.21875 -32.6875 C 16.871094 -32.6875 15.71875 -32.226562 14.761719 -31.304688 C 13.804688 -30.382812 13.078125 -28.964844 12.582031 -27.050781 C 12.085938 -25.140625 11.835938 -22.671875 11.835938 -19.65625 C 11.835938 -17.480469 11.976562 -15.597656 12.253906 -14 C 12.53125 -12.40625 12.953125 -11.082031 13.515625 -10.03125 C 14.074219 -8.976562 14.761719 -8.1875 15.574219 -7.660156 C 16.382812 -7.128906 17.320312 -6.867188 18.386719 -6.867188 Z M 18.386719 -6.867188 "/></g></g></g></svg>