<svg xmlns="http://www.w3.org/2000/svg" xmlns:xlink="http://www.w3.org/1999/xlink" width="500" zoomAndPan="magnify" viewBox="0 0 375 374.999991" height="500" preserveAspectRatio="xMidYMid meet" version="1.0"><defs><clipPath id="6e3a7536b4"><path d="M 10.285156 10.285156 L 364.714844 10.285156 L 364.714844 364.714844 L 10.285156 364.714844 Z M 10.285156 10.285156 " clip-rule="nonzero"/></clipPath><clipPath id="9b0e4ffcd2"><path d="M 25.285156 10.285156 L 349.714844 10.285156 C 353.691406 10.285156 357.507812 11.867188 360.320312 14.679688 C 363.132812 17.492188 364.714844 21.308594 364.714844 25.285156 L 364.714844 349.714844 C 364.714844 353.691406 363.132812 357.507812 360.320312 360.320312 C 357.507812 363.132812 353.691406 364.714844 349.714844 364.714844 L 25.285156 364.714844 C 21.308594 364.714844 17.492188 363.132812 14.679688 360.320312 C 11.867188 357.507812 10.285156 353.691406 10.285156 349.714844 L 10.285156 25.285156 C 10.285156 21.308594 11.867188 17.492188 14.679688 14.679688 C 17.492188 11.867188 21.308594 10.285156 25.285156 10.285156 Z M 25.285156 10.285156 " clip-rule="nonzero"/></clipPath><clipPath id="1406706435"><path d="M 10.285156 10.285156 L 364.707031 10.285156 L 364.707031 364.707031 L 10.285156 364.707031 Z M 10.285156 10.285156 " clip-rule="nonzero"/></clipPath><clipPath id="ee140d0902"><path d="M 25.285156 10.285156 L 349.707031 10.285156 C 353.6875 10.285156 357.5 11.867188 360.316406 14.679688 C 363.128906 17.492188 364.707031 21.308594 364.707031 25.285156 L 364.707031 349.707031 C 364.707031 353.6875 363.128906 357.5 360.316406 360.316406 C 357.5 363.128906 353.6875 364.707031 349.707031 364.707031 L 25.285156 364.707031 C 21.308594 364.707031 17.492188 363.128906 14.679688 360.316406 C 11.867188 357.5 10.285156 353.6875 10.285156 349.707031 L 10.285156 25.285156 C 10.285156 21.308594 11.867188 17.492188 14.679688 14.679688 C 17.492188 11.867188 21.308594 10.285156 25.285156 10.285156 Z M 25.285156 10.285156 " clip-rule="nonzero"/></clipPath><clipPath id="130f5763e2"><path d="M 128 91 L 260.3125 91 L 260.3125 284 L 128 284 Z M 128 91 " clip-rule="nonzero"/></clipPath></defs><g clip-path="url(#6e3a7536b4)"><g clip-path="url(#9b0e4ffcd2)"><path fill="#306b8d" d="M 10.285156 10.285156 L 364.714844 10.285156 L 364.714844 364.714844 L 10.285156 364.714844 Z M 10.285156 10.285156 " fill-opacity="1" fill-rule="nonzero"/></g></g><g clip-path="url(#1406706435)"><g clip-path="url(#ee140d0902)"><path stroke-linecap="butt" transform="matrix(0.75, 0, 0, 0.75, 10.286053, 10.286049)" fill="none" stroke-linejoin="miter" d="M 19.998805 -0.00119023 L 452.561333 -0.00119023 C 457.868626 -0.00119023 462.951959 2.108185 466.707168 5.858185 C 470.457168 9.608185 472.561335 14.696727 472.561335 19.998811 L 472.561335 452.561339 C 472.561335 457.868632 470.457168 462.951965 466.707168 466.707174 C 462.951959 470.457174 457.868626 472.561341 452.561333 472.561341 L 19.998805 472.561341 C 14.696721 472.561341 9.608179 470.457174 5.858179 466.707174 C 2.108179 462.951965 -0.00119623 457.868632 -0.00119623 452.561339 L -0.00119623 19.998811 C -0.00119623 14.696727 2.108179 9.608185 5.858179 5.858185 C 9.608179 2.108185 14.696721 -0.00119023 19.998805 -0.00119023 Z M 19.998805 -0.00119023 " stroke="#306b8d" stroke-width="20" stroke-opacity="1" stroke-miterlimit="4"/></g></g><g clip-path="url(#130f5763e2)"><path fill="#ffffff" d="M 260.179688 189.050781 L 168.746094 96.683594 C 151.085938 78.839844 114.816406 111.84375 136.089844 132.605469 L 193.9375 189.050781 L 134.222656 244.566406 C 116.039062 261.46875 149.722656 296.160156 167.8125 278.621094 Z M 260.179688 189.050781 " fill-opacity="1" fill-rule="nonzero"/></g></svg>